<svg xmlns="http://www.w3.org/2000/svg" viewBox="0 0 1200 380" role="img" aria-labelledby="t d">
  <title id="t">IMIS Integrated Management Information System</title>
  <desc id="d">Stylized banner for basic education digital platform</desc>
  <defs>
    <linearGradient id="bg" x1="0%" y1="0%" x2="100%" y2="100%">
      <stop offset="0%" stop-color="#0a2440"/>
      <stop offset="45%" stop-color="#0f3860"/>
      <stop offset="100%" stop-color="#1f6ca7"/>
    </linearGradient>
    <linearGradient id="sun" x1="0%" y1="0%" x2="0%" y2="100%">
      <stop offset="0%" stop-color="#fff4c2"/>
      <stop offset="100%" stop-color="#f0b429"/>
    </linearGradient>
    <filter id="s" x="-20%" y="-20%" width="140%" height="140%">
      <feDropShadow dx="0" dy="6" stdDeviation="14" flood-color="#000" flood-opacity="0.35"/>
    </filter>
  </defs>
  <rect width="1200" height="380" fill="url(#bg)"/>
  <circle cx="1030" cy="78" r="56" fill="url(#sun)" opacity="0.88"/>
  <g filter="url(#s)" fill="none" stroke="rgba(215,240,255,0.45)" stroke-width="2">
    <path d="M60 120 L320 95 L320 310 L60 290 Z" fill="rgba(12,40,70,0.45)"/>
    <path d="M300 135 L520 118 L520 300 L300 285 Z" fill="rgba(12,40,70,0.35)"/>
  </g>
  <path d="M720 240 Q860 120 1000 260 L1000 320 L720 320 Z" fill="rgba(30,90,140,0.25)" stroke="rgba(200,230,255,0.2)" stroke-width="2"/>
  <g fill="#eaf7ff">
    <rect x="160" y="88" width="200" height="14" rx="4" opacity="0.9"/>
    <rect x="160" y="112" width="280" height="10" rx="3" opacity="0.55"/>
    <rect x="160" y="130" width="240" height="10" rx="3" opacity="0.45"/>
  </g>
  <text x="600" y="198" text-anchor="middle" fill="#ffffff" font-family="Segoe UI,Arial,sans-serif" font-size="56" font-weight="800" letter-spacing="0.04em">IMIS</text>
  <text x="600" y="246" text-anchor="middle" fill="#b5d5ef" font-family="Segoe UI,Arial,sans-serif" font-size="22" font-weight="600">Basic Education · Institutional Digital Platform</text>
  <text x="600" y="278" text-anchor="middle" fill="#87b8de" font-family="Segoe UI,Arial,sans-serif" font-size="14">Admissions · Examinations · Attendance · Governance</text>
</svg>
